<svg xmlns="http://www.w3.org/2000/svg" viewBox="0 0 460 880" role="img">
  <defs>
    <style>
      .t { font-family: -apple-system, "Segoe UI", "Helvetica Neue", Arial, sans-serif; }
      .num { font-family: "Iowan Old Style", Georgia, serif; }
    </style>
  </defs>
  <rect width="460" height="880" fill="#F6F1E8"/>

  <!-- legend -->
  <g class="t" font-size="13" font-weight="600">
    <text x="40" y="42" fill="#171717">In place</text>
    <text x="118" y="42" fill="#B43A32">Building</text>
    <text x="196" y="42" fill="#68645E">Target</text>
    <text x="420" y="42" text-anchor="end" fill="#68645E" font-weight="400">2026-09</text>
  </g>
  <line x1="40" y1="56" x2="420" y2="56" stroke="#171717" stroke-width="1" opacity="0.25"/>

  <!-- 01 -->
  <text class="num" x="40" y="104" font-size="22" fill="#B43A32">01</text>
  <text class="t" x="76" y="104" font-size="25" fill="#171717">Research question</text>
  <text class="t" x="40" y="130" font-size="14" font-weight="600" fill="#68645E">Human</text>
  <text class="t" x="156" y="130" font-size="16" fill="#68645E">hypothesis and scope</text>
  <path d="M 52 144 l 6 8 l 6 -8" fill="none" stroke="#171717" stroke-width="1.2" opacity="0.5"/>

  <!-- 02 -->
  <text class="num" x="40" y="192" font-size="22" fill="#B43A32">02</text>
  <text class="t" x="76" y="192" font-size="25" fill="#171717">Data &amp; universe</text>
  <text class="t" x="40" y="218" font-size="14" font-weight="600" fill="#171717">In place</text>
  <text class="t" x="156" y="218" font-size="16" fill="#68645E">contracts, PIT access</text>
  <text class="t" x="40" y="242" font-size="14" font-weight="600" fill="#171717">In place</text>
  <text class="t" x="156" y="242" font-size="16" fill="#68645E">reviewed ETF universe</text>
  <path d="M 52 256 l 6 8 l 6 -8" fill="none" stroke="#171717" stroke-width="1.2" opacity="0.5"/>

  <!-- 03 -->
  <text class="num" x="40" y="304" font-size="22" fill="#B43A32">03</text>
  <text class="t" x="76" y="304" font-size="25" fill="#171717">Factor research</text>
  <text class="t" x="40" y="330" font-size="14" font-weight="600" fill="#171717">In place</text>
  <text class="t" x="156" y="330" font-size="16" fill="#68645E">operators, registry</text>
  <text class="t" x="40" y="354" font-size="14" font-weight="600" fill="#B43A32">Building</text>
  <text class="t" x="156" y="354" font-size="16" fill="#68645E">formula compiling</text>
  <text class="t" x="40" y="378" font-size="14" font-weight="600" fill="#68645E">Target</text>
  <text class="t" x="156" y="378" font-size="16" fill="#68645E">search-based mining</text>
  <path d="M 52 392 l 6 8 l 6 -8" fill="none" stroke="#171717" stroke-width="1.2" opacity="0.5"/>

  <!-- 04 -->
  <text class="num" x="40" y="440" font-size="22" fill="#B43A32">04</text>
  <text class="t" x="76" y="440" font-size="25" fill="#171717">Testing &amp; screening</text>
  <text class="t" x="40" y="466" font-size="14" font-weight="600" fill="#171717">In place</text>
  <text class="t" x="156" y="466" font-size="16" fill="#68645E">evaluation, integration</text>
  <path d="M 52 480 l 6 8 l 6 -8" fill="none" stroke="#171717" stroke-width="1.2" opacity="0.5"/>

  <!-- 05 -->
  <text class="num" x="40" y="528" font-size="22" fill="#B43A32">05</text>
  <text class="t" x="76" y="528" font-size="25" fill="#171717">Portfolio &amp; backtest</text>
  <text class="t" x="40" y="554" font-size="14" font-weight="600" fill="#171717">In place</text>
  <text class="t" x="156" y="554" font-size="16" fill="#68645E">rebalancing decisions</text>
  <text class="t" x="40" y="578" font-size="14" font-weight="600" fill="#171717">In place</text>
  <text class="t" x="156" y="578" font-size="16" fill="#68645E">backtest, simulation</text>
  <path d="M 52 592 l 6 8 l 6 -8" fill="none" stroke="#171717" stroke-width="1.2" opacity="0.5"/>

  <!-- 06 -->
  <text class="num" x="40" y="640" font-size="22" fill="#B43A32">06</text>
  <text class="t" x="76" y="640" font-size="25" fill="#171717">Execution &amp; risk</text>
  <text class="t" x="40" y="666" font-size="14" font-weight="600" fill="#171717">In place</text>
  <text class="t" x="156" y="666" font-size="16" fill="#68645E">orders, reconciliation</text>
  <text class="t" x="40" y="690" font-size="14" font-weight="600" fill="#B43A32">Building</text>
  <text class="t" x="156" y="690" font-size="16" fill="#68645E">live admission by stage</text>
  <text class="t" x="40" y="714" font-size="14" font-weight="600" fill="#68645E">Target</text>
  <text class="t" x="156" y="714" font-size="16" fill="#68645E">risk model and limits</text>

  <!-- support band -->
  <line x1="40" y1="744" x2="420" y2="744" stroke="#171717" stroke-width="1" opacity="0.25"/>
  <text class="t" x="40" y="774" font-size="15" font-weight="600" fill="#171717">Five supporting domains</text>
  <g class="t" font-size="13" fill="#171717">
    <rect x="40" y="788" width="112" height="26" fill="none" stroke="#171717" stroke-width="1" opacity="0.55"/>
    <text x="96" y="806" text-anchor="middle">Data</text>
    <rect x="164" y="788" width="112" height="26" fill="none" stroke="#171717" stroke-width="1" opacity="0.55"/>
    <text x="220" y="806" text-anchor="middle">Research</text>
    <rect x="288" y="788" width="112" height="26" fill="none" stroke="#171717" stroke-width="1" opacity="0.55"/>
    <text x="344" y="806" text-anchor="middle">Trading</text>
    <rect x="40" y="822" width="112" height="26" fill="none" stroke="#171717" stroke-width="1" opacity="0.55"/>
    <text x="96" y="840" text-anchor="middle">Operations</text>
    <rect x="164" y="822" width="112" height="26" fill="none" stroke="#171717" stroke-width="1" opacity="0.55"/>
    <text x="220" y="840" text-anchor="middle">Platform</text>
  </g>
  <text class="t" x="40" y="872" font-size="13" fill="#68645E">operations · console · handbook · shared infra</text>
</svg>
