<svg xmlns="http://www.w3.org/2000/svg" viewBox="0 0 760 988" role="img">
  <defs>
    <style>
      .t { font-family: -apple-system, "Segoe UI", "Helvetica Neue", Arial, sans-serif; }
      .num { font-family: "Iowan Old Style", Georgia, serif; }
    </style>
  </defs>
  <rect width="760" height="988" fill="#F6F1E8"/>

  <!-- legend -->
  <g class="t" font-size="15" fill="#68645E">
    <rect x="56" y="46" width="10" height="10" fill="none" stroke="#171717" stroke-width="1.5"/>
    <text x="74" y="56">In place</text>
    <rect x="146" y="46" width="10" height="10" fill="none" stroke="#B43A32" stroke-width="1.5" stroke-dasharray="3 2.4"/>
    <text x="164" y="56">Under construction</text>
    <rect x="298" y="46" width="10" height="10" fill="none" stroke="#68645E" stroke-width="1.5" stroke-dasharray="1.5 3"/>
    <text x="316" y="56">Target architecture</text>
    <text x="704" y="56" text-anchor="end" fill="#68645E">2026-09</text>
  </g>
  <line x1="56" y1="72" x2="704" y2="72" stroke="#171717" stroke-width="1" opacity="0.25"/>

  <!-- 01 -->
  <g>
    <rect x="56" y="96" width="3" height="68" fill="#171717"/>
    <text class="num" x="72" y="122" font-size="24" fill="#B43A32">01</text>
    <text class="t" x="112" y="122" font-size="26" fill="#171717">Research question</text>
    <circle cx="116" cy="145" r="3" fill="#68645E"/>
    <text class="t" x="128" y="149" font-size="16" fill="#68645E">Human-led · hypothesis and scope</text>
    <path d="M 74 176 l 6 8 l 6 -8" fill="none" stroke="#171717" stroke-width="1.2" opacity="0.5"/>
  </g>

  <!-- 02 -->
  <g>
    <rect x="56" y="196" width="3" height="90" fill="#171717"/>
    <text class="num" x="72" y="222" font-size="24" fill="#B43A32">02</text>
    <text class="t" x="112" y="222" font-size="26" fill="#171717">Data &amp; investable universe</text>
    <rect x="112" y="240" width="8" height="8" fill="none" stroke="#171717" stroke-width="1.2"/>
    <text class="t" x="128" y="249" font-size="16" fill="#68645E">Contracts · ingestion · publication · read-only PIT access</text>
    <rect x="112" y="262" width="8" height="8" fill="none" stroke="#171717" stroke-width="1.2"/>
    <text class="t" x="128" y="271" font-size="16" fill="#68645E">Universe: reviewed point-in-time ETF membership</text>
    <path d="M 74 298 l 6 8 l 6 -8" fill="none" stroke="#171717" stroke-width="1.2" opacity="0.5"/>
  </g>

  <!-- 03 -->
  <g>
    <rect x="56" y="318" width="3" height="112" fill="#171717"/>
    <text class="num" x="72" y="344" font-size="24" fill="#B43A32">03</text>
    <text class="t" x="112" y="344" font-size="26" fill="#171717">Factor research &amp; mining</text>
    <rect x="112" y="362" width="8" height="8" fill="none" stroke="#171717" stroke-width="1.2"/>
    <text class="t" x="128" y="371" font-size="16" fill="#68645E">Numeric primitives · operator and formal factor registry</text>
    <rect x="112" y="384" width="8" height="8" fill="none" stroke="#B43A32" stroke-width="1.2" stroke-dasharray="3 2.2"/>
    <text class="t" x="128" y="393" font-size="16" fill="#68645E">Formula representation (phase 1 merged; compilation/execution in progress)</text>
    <rect x="112" y="406" width="8" height="8" fill="none" stroke="#68645E" stroke-width="1.2" stroke-dasharray="1.5 3"/>
    <text class="t" x="128" y="415" font-size="16" fill="#68645E">Search-based factor mining</text>
    <path d="M 74 442 l 6 8 l 6 -8" fill="none" stroke="#171717" stroke-width="1.2" opacity="0.5"/>
  </g>

  <!-- 04 -->
  <g>
    <rect x="56" y="462" width="3" height="68" fill="#171717"/>
    <text class="num" x="72" y="488" font-size="24" fill="#B43A32">04</text>
    <text class="t" x="112" y="488" font-size="26" fill="#171717">Factor testing &amp; screening</text>
    <rect x="112" y="506" width="8" height="8" fill="none" stroke="#171717" stroke-width="1.2"/>
    <text class="t" x="128" y="515" font-size="16" fill="#68645E">Evaluation · screening · integration</text>
    <path d="M 74 542 l 6 8 l 6 -8" fill="none" stroke="#171717" stroke-width="1.2" opacity="0.5"/>
  </g>

  <!-- 05 -->
  <g>
    <rect x="56" y="562" width="3" height="90" fill="#171717"/>
    <text class="num" x="72" y="588" font-size="24" fill="#B43A32">05</text>
    <text class="t" x="112" y="588" font-size="26" fill="#171717">Portfolio construction &amp; backtesting</text>
    <rect x="112" y="606" width="8" height="8" fill="none" stroke="#171717" stroke-width="1.2"/>
    <text class="t" x="128" y="615" font-size="16" fill="#68645E">Target portfolios and rebalancing decisions</text>
    <rect x="112" y="628" width="8" height="8" fill="none" stroke="#171717" stroke-width="1.2"/>
    <text class="t" x="128" y="637" font-size="16" fill="#68645E">Backtest framework · simulation and performance</text>
    <path d="M 74 664 l 6 8 l 6 -8" fill="none" stroke="#171717" stroke-width="1.2" opacity="0.5"/>
  </g>

  <!-- 06 -->
  <g>
    <rect x="56" y="684" width="3" height="112" fill="#171717"/>
    <text class="num" x="72" y="710" font-size="24" fill="#B43A32">06</text>
    <text class="t" x="112" y="710" font-size="26" fill="#171717">Paper/live execution &amp; risk control</text>
    <rect x="112" y="728" width="8" height="8" fill="none" stroke="#171717" stroke-width="1.2"/>
    <text class="t" x="128" y="737" font-size="16" fill="#68645E">Execution runtime · orders and reconciliation</text>
    <rect x="112" y="750" width="8" height="8" fill="none" stroke="#B43A32" stroke-width="1.2" stroke-dasharray="3 2.2"/>
    <text class="t" x="128" y="759" font-size="16" fill="#68645E">Live admission, stage by stage</text>
    <rect x="112" y="772" width="8" height="8" fill="none" stroke="#68645E" stroke-width="1.2" stroke-dasharray="1.5 3"/>
    <text class="t" x="128" y="781" font-size="16" fill="#68645E">Risk model and limits</text>
  </g>

  <!-- support band: five domains -->
  <line x1="56" y1="830" x2="704" y2="830" stroke="#171717" stroke-width="1" opacity="0.25"/>
  <text class="t" x="56" y="862" font-size="16" fill="#171717" font-weight="600">Five supporting domains</text>
  <g class="t" font-size="14" fill="#171717">
    <rect x="56" y="878" width="86" height="28" fill="none" stroke="#171717" stroke-width="1" opacity="0.55"/>
    <text x="99" y="897" text-anchor="middle">Data</text>
    <rect x="152" y="878" width="86" height="28" fill="none" stroke="#171717" stroke-width="1" opacity="0.55"/>
    <text x="195" y="897" text-anchor="middle">Research</text>
    <rect x="248" y="878" width="86" height="28" fill="none" stroke="#171717" stroke-width="1" opacity="0.55"/>
    <text x="291" y="897" text-anchor="middle">Trading</text>
    <rect x="344" y="878" width="86" height="28" fill="none" stroke="#171717" stroke-width="1" opacity="0.55"/>
    <text x="387" y="897" text-anchor="middle">Operations</text>
    <rect x="440" y="878" width="86" height="28" fill="none" stroke="#171717" stroke-width="1" opacity="0.55"/>
    <text x="483" y="897" text-anchor="middle">Platform</text>
  </g>
  <text class="t" x="56" y="938" font-size="15" fill="#68645E">Investment operations · orchestration and business console ·</text>
  <text class="t" x="56" y="960" font-size="15" fill="#68645E">project handbook · shared infrastructure</text>
</svg>
